<svg width="1728" height="1468" viewBox="0 0 1728 1468" fill="none" xmlns="http://www.w3.org/2000/svg">
<path d="M1189.33 824.572C1254.55 806.474 1294.49 677.324 1297.07 569.083C1297.23 562.077 1297.07 528.922 1297.07 528.922C1297.07 528.922 1269.82 579.431 1256.88 594.717C1247.48 605.825 1221.61 633.383 1196.17 650.258C1196.17 650.258 1202.16 687.855 1173.94 711.781C1145.72 735.706 1129.84 738.635 1104.69 711.781L1067.92 735.706C1101.03 763.546 1138.88 763.904 1183.35 741.688C1227.81 719.471 1232.08 634.878 1232.08 634.878C1247.48 626.333 1267.14 604.116 1267.14 604.116C1267.14 604.116 1262.87 707.508 1208.14 752.796C1153.42 798.084 1070.48 792.102 1048.25 748.524C1026.03 704.945 782.346 804.065 919.145 818.591C1055.94 833.117 1124.11 842.67 1189.33 824.572Z" fill="#252525"/>
<path d="M1221.82 204.221C1366.8 100.675 1451.16 41.5547 1544.17 0C1613.2 85.524 1640.78 148.68 1654.47 221.311C1668.16 293.942 1642.05 391.794 1558.7 463.984C1609.97 523.404 1633.44 561.25 1668.15 634.88C1700.43 715.29 1714.13 761.036 1728 844.228C1688.5 750.169 1669.44 716.364 1641.64 693.839C1643.4 826.437 1630.84 894.483 1579.23 1002.31C1519.28 1105.61 1431.67 1202.05 1338.96 1281.72C1409.66 1158.56 1454.82 1102.01 1450.12 1054.43C1403.97 1085.84 1402.2 1082.1 1344.95 1108.26C1412.39 1043.27 1474.91 957.874 1474.91 957.874C1474.91 957.874 1588.86 814.101 1586.07 701.53C1579.74 601.91 1534 537.454 1387.7 409.297C1432.64 414.519 1473.89 398.333 1498.85 381.099C1545.88 348.629 1568.96 281.125 1568.96 281.125C1580.08 244.382 1576.97 200.335 1549.3 148.68L1438.15 182.859C1393.38 201.028 1371.18 214.869 1337.25 246.945C1417.16 229.308 1448.35 224.673 1474.91 224.729C1471.05 257.343 1463.14 275.897 1438.15 308.468C1416.56 332.023 1403.91 343.827 1380 361.446C1368.96 368.974 1362.21 371.358 1349.22 372.554C1338.25 371.748 1332.08 369.128 1321.01 361.446C1292.18 334.311 1274.83 319.141 1239.78 292.233C1192.27 259.846 1163.99 244.065 1109.82 221.311C1062.49 203.499 1050.97 192.356 945.65 182.859C961.524 207.533 948.54 234.732 1011.49 246.945C1073.91 253.489 1099.56 253.781 1132.9 270.871C1164.58 287.106 1204.84 317.179 1238.07 348.629C1133.99 314.017 1105.54 294.129 1032.86 292.233C976.215 290.755 937.478 256.018 861.832 257.226V136.946C966.238 136.946 1012.21 140.332 1109.82 165.77C1151.03 179.309 1204.53 209.228 1221.82 204.221Z" fill="#252525"/>
<path d="M1526.21 689.567C1517.66 626.335 1459.74 557.798 1368.89 511.835C1465.88 661.687 1474.55 751.316 1415.92 920.277C1496.55 829.246 1530.49 756.217 1526.21 689.567Z" fill="#252525"/>
<path d="M1027.73 361.446C1096.92 406.374 1162.11 403.098 1229.91 409.297C1118.72 428.942 1044.07 449.148 1011.49 440.058C957.616 412.512 920.077 379.439 863.765 379.439C807.454 379.439 863.765 316.883 863.765 316.883C922.01 315.434 995.533 340.813 1027.73 361.446Z" fill="#252525"/>
<path d="M1292.79 429.804C1272.68 475.281 1191.24 527.981 999.517 640.007C1034.76 593.315 1054.24 566.522 1055.09 530.633C1056.6 508.866 1062.63 500.428 1081.6 491.327C1206.08 447.067 1246.99 436.167 1292.79 429.804Z" fill="#252525"/>
<path d="M1273.13 898.06C1214.88 915.122 1187.65 914.425 1152.57 887.807C1327.13 824.502 1374.91 763.085 1343.66 593.293C1392.25 681.586 1392.57 734.857 1344.95 836.538C1378.69 941.677 1363.87 987.437 1282.53 1047.59C1304.63 978.452 1307.04 943.852 1273.13 898.06Z" fill="#252525"/>
<path d="M1059.37 828.848C1020.98 807.582 1000.03 807.441 965.316 861.318C997.742 848.149 1011.91 845.715 1025.17 856.191C1074.78 896.451 1094 916.691 1112.38 948.475C1123.1 983.042 1116.95 1004.51 1078.18 1047.59C1043.57 1076.18 1021.09 1085.46 976.431 1092.03C1057.16 1100.11 1102.25 1103.86 1157.7 1001.45C1167.46 1027.47 1168.6 1040.72 1157.7 1060.41C1112.48 1125.78 1066.48 1149.28 957.621 1174.06C1090.14 1192.23 1152.57 1139.88 1183.35 1098.86C1165.97 1248.05 1032.06 1292.48 896.914 1211.66C896.528 1211.42 895.773 1210.97 895.773 1210.97L895.62 1210.12C895.449 1209.18 895.275 1208.23 895.104 1207.26C893.655 1197.16 892.016 1168.21 914.869 1143.3C944.214 1109.9 963.891 1069.28 962.751 1070.67L945.65 1056.14C981.261 1025.14 997.062 1007.74 1015.76 976.673C958.474 992.277 863.282 1029.39 863.282 1024.8L862.713 1268.91C901.467 1268.91 943.909 1283.46 1003.79 1299.67L1012.34 1393.66C965.922 1356.06 929.326 1344.18 862.713 1339.83V1449.2C937.1 1449.2 974.098 1466.29 1012.34 1468C1077.72 1465.77 1098.13 1418.55 1117.51 1286C1180.95 1262.77 1226.95 1216.78 1238.07 1167.22C1266.73 1039.43 1235.25 964.291 1059.37 828.848Z" fill="#252525"/>
<path d="M862.713 896.352C862.713 896.352 795.328 463.96 864.249 460.592C933.169 457.224 969.921 468.418 1036.28 482.782C982.414 539.53 961.964 575.433 943.085 646.843C922.662 613.743 920.703 587.652 937.955 524.652C908.726 553.556 890.929 628.899 890.929 703.239C890.074 741.69 913.358 762.605 937.955 756.217C989.728 733.785 1171.93 623.144 1297.07 530.633C1286.62 554.779 1273.04 576.413 1256.5 596.428C1189.92 677.005 1075.38 731.347 924.275 817.739C912.465 821.8 908.706 824.213 908.884 828.848C910.873 853.691 913.712 870.411 924.275 909.169C896.722 896.951 870.408 898.915 862.713 896.352Z" fill="#252525"/>
<path d="M538.667 824.572C473.448 806.474 433.506 677.324 430.933 569.083C430.767 562.077 430.934 528.922 430.934 528.922C430.934 528.922 458.178 579.431 471.118 594.717C480.522 605.825 506.395 633.383 531.827 650.258C531.827 650.258 525.837 687.855 554.058 711.781C582.279 735.706 598.156 738.635 623.315 711.781L660.081 735.706C626.965 763.546 589.119 763.904 544.653 741.688C500.186 719.471 495.916 634.878 495.916 634.878C480.524 626.333 460.858 604.116 460.858 604.116C460.858 604.116 465.13 707.508 519.857 752.796C574.584 798.084 657.521 792.102 679.747 748.524C701.972 704.945 945.654 804.065 808.855 818.591C672.057 833.117 603.887 842.67 538.667 824.572Z" fill="#252525"/>
<path d="M506.176 204.221C361.198 100.675 276.84 41.5547 183.831 0C114.805 85.524 87.2239 148.68 73.5323 221.311C59.8407 293.942 85.9477 391.794 169.295 463.984C118.026 523.404 94.5622 561.25 59.8519 634.88C27.57 715.29 13.8658 761.036 0 844.228C39.5043 750.169 58.556 716.364 86.3577 693.839C84.5957 826.437 97.1555 894.483 148.775 1002.31C208.722 1105.61 296.331 1202.05 389.037 1281.72C318.338 1158.56 273.183 1102.01 277.884 1054.43C324.03 1085.84 325.804 1082.1 383.052 1108.26C315.609 1043.27 253.088 957.874 253.088 957.874C253.088 957.874 139.143 814.101 141.935 701.53C148.256 601.91 193.997 537.454 340.301 409.297C295.358 414.519 254.108 398.333 229.147 381.099C182.121 348.629 159.035 281.125 159.035 281.125C147.92 244.382 151.032 200.335 178.701 148.68L289.854 182.859C334.621 201.028 356.823 214.869 390.747 246.945C310.835 229.308 279.65 224.673 253.088 224.729C256.955 257.343 264.862 275.897 289.854 308.468C311.437 332.023 324.087 343.827 347.996 361.446C359.039 368.974 365.794 371.358 378.777 372.554C389.754 371.748 395.924 369.128 406.993 361.446C435.817 334.311 453.174 319.141 488.22 292.233C535.73 259.846 564.01 244.065 618.185 221.311C665.506 203.499 677.03 192.356 782.35 182.859C766.476 207.533 779.46 234.732 716.513 246.945C654.085 253.489 628.445 253.781 595.099 270.871C563.42 287.106 523.158 317.179 489.931 348.629C594.011 314.017 622.46 294.129 695.137 292.233C751.785 290.755 788.846 257.199 863.577 257.199V136.946C762.261 135.497 715.794 140.332 618.185 165.77C576.974 179.309 523.474 209.228 506.176 204.221Z" fill="#252525"/>
<path d="M201.786 689.567C210.337 626.335 268.264 557.798 359.111 511.835C262.116 661.687 253.451 751.316 312.085 920.277C231.451 829.246 197.511 756.217 201.786 689.567Z" fill="#252525"/>
<path d="M700.267 361.446C631.085 406.374 557.736 403.098 489.931 409.297C601.122 428.942 683.935 449.148 716.513 440.058C768.916 410.309 798.513 376.782 863.577 379.39C928.642 381.998 863.577 317.013 863.577 317.013C820.023 314.709 732.467 340.813 700.267 361.446Z" fill="#252525"/>
<path d="M435.209 429.804C455.324 475.281 536.756 527.981 728.483 640.007C693.239 593.315 673.761 566.522 672.906 530.633C671.405 508.866 665.37 500.428 646.401 491.327C521.918 447.067 481.014 436.167 435.209 429.804Z" fill="#252525"/>
<path d="M454.874 898.06C513.115 915.122 540.346 914.425 575.433 887.807C400.873 824.502 353.093 763.085 384.344 593.293C335.752 681.586 335.431 734.857 383.052 836.538C349.309 941.677 364.13 987.437 445.469 1047.59C423.366 978.452 420.963 943.852 454.874 898.06Z" fill="#252525"/>
<path d="M668.631 828.848C707.021 807.582 727.966 807.441 762.684 861.318C730.258 848.149 716.09 845.715 702.832 856.191C653.217 896.451 633.995 916.691 615.62 948.475C604.899 983.042 611.049 1004.51 649.821 1047.59C684.429 1076.18 706.908 1085.46 751.569 1092.03C670.836 1100.11 625.754 1103.86 570.303 1001.45C560.537 1027.47 559.405 1040.72 570.303 1060.41C615.516 1125.78 661.518 1149.28 770.379 1174.06C637.855 1192.23 575.433 1139.88 544.652 1098.86C562.027 1248.05 695.942 1292.48 831.086 1211.66C831.472 1211.42 832.227 1210.97 832.227 1210.97L832.38 1210.12C832.552 1209.18 832.725 1208.23 832.896 1207.26C834.345 1197.16 835.984 1168.21 813.131 1143.3C783.786 1109.9 764.109 1069.28 765.249 1070.67L782.35 1056.14C746.739 1025.14 730.939 1007.74 712.238 976.673C769.526 992.277 857.483 1026.97 863.283 1025.04C863.283 1025.04 892.185 1270.28 865.287 1268.91C838.39 1267.53 724.208 1299.67 724.208 1299.67L715.658 1393.66C762.079 1356.06 798.03 1339.83 865.287 1339.83V1449.2C790.9 1449.2 753.902 1466.29 715.658 1468C650.284 1465.77 629.869 1418.55 610.489 1286C547.052 1262.77 501.046 1216.78 489.931 1167.22C461.269 1039.43 492.75 964.291 668.631 828.848Z" fill="#252525"/>
<path d="M865.287 896.352C865.287 896.352 930.487 464.81 863.767 460.592C797.047 456.373 759.084 469.251 691.717 482.782C745.587 539.53 766.036 575.433 784.915 646.843C805.338 613.743 807.298 587.652 790.045 524.652C819.274 553.556 837.072 628.899 837.072 703.239C837.927 741.69 814.643 762.605 790.045 756.217C738.272 733.785 556.065 623.144 430.934 530.633C441.379 554.779 454.959 576.413 471.498 596.428C538.08 677.005 652.622 731.347 803.726 817.739C815.535 821.8 819.294 824.213 819.116 828.848C817.127 853.691 814.288 870.411 803.726 909.169C831.278 896.951 857.592 898.915 865.287 896.352Z" fill="#252525"/>
</svg>
